# File generated by FabConvert.com - Free Image and 3D model conversion tools

mtllib radio.mtl

o obj1
v -0.625 -0.565 0.25
v -0.20829999 -0.565 0.25
v -0.20829999 -0.315 0.25
v -0.625 -0.315 0.25
v -0.20829999 -0.065 0.25
v -0.625 -0.065 0.25
v -0.20829999 0.185 0.25
v -0.625 0.185 0.25
v 0.20829999 -0.565 0.25
v 0.20829999 -0.315 0.25
v 0.20829999 -0.065 0.25
v 0.20829999 0.185 0.25
v 0.625 -0.565 0.25
v 0.625 -0.315 0.25
v 0.625 -0.065 0.25
v 0.625 0.185 0.25
v -0.20829999 0.185 0.0833
v -0.625 0.185 0.0833
v -0.20829999 0.185 -0.0833
v -0.625 0.185 -0.0833
v -0.20829999 0.185 -0.25
v -0.625 0.185 -0.25
v 0.20829999 0.185 0.0833
v 0.20829999 0.185 -0.0833
v 0.20829999 0.185 -0.25
v 0.625 0.185 0.0833
v 0.625 0.185 -0.0833
v 0.625 0.185 -0.25
v -0.20829999 -0.065 -0.25
v -0.625 -0.065 -0.25
v -0.20829999 -0.315 -0.25
v -0.625 -0.315 -0.25
v -0.20829999 -0.565 -0.25
v -0.625 -0.565 -0.25
v 0.20829999 -0.065 -0.25
v 0.20829999 -0.315 -0.25
v 0.20829999 -0.565 -0.25
v 0.625 -0.065 -0.25
v 0.625 -0.315 -0.25
v 0.625 -0.565 -0.25
v -0.20829999 -0.565 -0.0833
v -0.625 -0.565 -0.0833
v -0.20829999 -0.565 0.0833
v -0.625 -0.565 0.0833
v 0.20829999 -0.565 -0.0833
v 0.20829999 -0.565 0.0833
v 0.625 -0.565 -0.0833
v 0.625 -0.565 0.0833
v -0.625 -0.315 -0.0833
v -0.625 -0.065 -0.0833
v -0.625 -0.315 0.0833
v -0.625 -0.065 0.0833
v 0.625 -0.315 0.0833
v 0.625 -0.065 0.0833
v 0.625 -0.315 -0.0833
v 0.625 -0.065 -0.0833
v -0.5334 -0.0064 0.1007
v -0.35440001 -0.0064 0.1007
v -0.35440001 0.40799999 0.1007
v -0.5334 0.40799999 0.1007
v -0.5334 0.40799999 -0.0915
v -0.35440001 0.40799999 -0.0915
v -0.35440001 -0.0064 -0.0915
v -0.5334 -0.0064 -0.0915
v 0.5334 0.40799999 0.1007
v 0.35440001 0.40799999 0.1007
v 0.35440001 -0.0064 0.1007
v 0.5334 -0.0064 0.1007
v 0.5334 -0.0064 -0.0915
v 0.35440001 -0.0064 -0.0915
v 0.35440001 0.40799999 -0.0915
v 0.5334 0.40799999 -0.0915
v -0.3545 0.56959999 0.1007
v -0.3545 0.56959999 -0.0915
v 0.35429999 0.56739998 -0.0915
v 0.35429999 0.56739998 0.1007
usemtl mat1
f 1 2 3
f 1 3 4
f 4 3 5
f 4 5 6
f 6 5 7
f 6 7 8
f 2 9 10
f 2 10 3
f 3 10 11
f 3 11 5
f 5 11 12
f 5 12 7
f 9 13 14
f 9 14 10
f 10 14 15
f 10 15 11
f 11 15 16
f 11 16 12
f 8 7 17
f 8 17 18
f 18 17 19
f 18 19 20
f 20 19 21
f 20 21 22
f 7 12 23
f 7 23 17
f 17 23 24
f 17 24 19
f 19 24 25
f 19 25 21
f 12 16 26
f 12 26 23
f 23 26 27
f 23 27 24
f 24 27 28
f 24 28 25
f 22 21 29
f 22 29 30
f 30 29 31
f 30 31 32
f 32 31 33
f 32 33 34
f 21 25 35
f 21 35 29
f 29 35 36
f 29 36 31
f 31 36 37
f 31 37 33
f 25 28 38
f 25 38 35
f 35 38 39
f 35 39 36
f 36 39 40
f 36 40 37
f 34 33 41
f 34 41 42
f 42 41 43
f 42 43 44
f 44 43 2
f 44 2 1
f 33 37 45
f 33 45 41
f 41 45 46
f 41 46 43
f 43 46 9
f 43 9 2
f 37 40 47
f 37 47 45
f 45 47 48
f 45 48 46
f 46 48 13
f 46 13 9
f 34 42 49
f 34 49 32
f 32 49 50
f 32 50 30
f 30 50 20
f 30 20 22
f 42 44 51
f 42 51 49
f 49 51 52
f 49 52 50
f 50 52 18
f 50 18 20
f 44 1 4
f 44 4 51
f 51 4 6
f 51 6 52
f 52 6 8
f 52 8 18
f 13 48 53
f 13 53 14
f 14 53 54
f 14 54 15
f 15 54 26
f 15 26 16
f 48 47 55
f 48 55 53
f 53 55 56
f 53 56 54
f 54 56 27
f 54 27 26
f 47 40 39
f 47 39 55
f 55 39 38
f 55 38 56
f 56 38 28
f 56 28 27
f 57 58 59
f 57 59 60
f 61 62 63
f 61 63 64
f 64 63 58
f 64 58 57
f 64 57 60
f 64 60 61
f 58 63 62
f 58 62 59
f 65 66 67
f 65 67 68
f 69 70 71
f 69 71 72
f 68 67 70
f 68 70 69
f 72 65 68
f 72 68 69
f 66 71 70
f 66 70 67
f 73 60 59
f 74 62 61
f 73 74 61
f 73 61 60
f 75 72 71
f 76 66 65
f 75 76 65
f 75 65 72
f 76 73 74
f 76 74 75
f 66 73 76
f 59 66 73
f 75 74 71
f 71 74 62
f 71 62 66
f 59 66 62
# Vertices: 76, normals: 0, texture coordinates: 0, faces: 144

